<svg width="91" height="66" viewBox="0 0 91 66" fill="none" xmlns="http://www.w3.org/2000/svg">
<path d="M45.2051 53.8866L81.2206 63.537L65.9982 48.3146L45.2051 53.8866Z" fill="url(#paint0_linear_89001_1595)"/>
<path d="M81.2206 63.5371L90.4106 66L72.7266 0L45.2051 27.5215L81.2206 63.5371Z" fill="url(#paint1_linear_89001_1595)"/>
<path d="M86.8162 52.5813L86.6148 51.8292C68.1865 41.5327 61.9264 18.0895 72.7265 0L71.2655 1.46103C66.8916 9.74455 65.7301 19.3256 68.0348 28.4593C70.6011 38.6316 77.1816 47.1989 86.3414 52.3171L86.8162 52.5813Z" fill="#FFFF00"/>
<path d="M65.9992 48.3145L9.19043 63.5369L45.206 27.5214L65.9992 48.3145Z" fill="url(#paint2_linear_89001_1595)"/>
<path d="M9.18996 63.5371L0 66L17.6841 0L45.2055 27.5215L9.18996 63.5371Z" fill="url(#paint3_linear_89001_1595)"/>
<path d="M9.18985 63.5371L8.09375 63.8314L44.8039 27.12L45.2054 27.5215L9.18985 63.5371Z" fill="#F98AFE"/>
<path d="M9.19043 63.5369L12.8855 59.8432L24.4128 48.3145L45.206 27.5214L28.2583 49.3452L19.3535 60.8137L11.0386 63.0412L9.19043 63.5369Z" fill="#1E003D"/>
<path d="M51.0322 55.4484L45.2051 53.8866L65.9982 48.3146L51.0322 55.4484Z" fill="#1E003D"/>
<path d="M81.2207 63.5371L82.3167 63.8314L45.6066 27.12L45.2051 27.5215L81.2207 63.5371Z" fill="#FFFF00"/>
<path d="M81.221 63.5371L45.2159 27.532L42.2441 30.4828L81.221 63.5371Z" fill="#1E003D"/>
<path d="M86.6152 51.8292L81.569 32.9993L72.727 0C62.1388 17.7351 67.9332 40.6956 85.6682 51.2838C85.9822 51.4708 86.2974 51.6526 86.6152 51.8292Z" fill="url(#paint4_linear_89001_1595)"/>
<path d="M86.6152 51.8292L84.8337 45.1807C71.2856 34.9012 65.8469 16.4088 72.727 0C62.1388 17.7351 67.9332 40.6956 85.6682 51.2838C85.9822 51.4708 86.2974 51.6526 86.6152 51.8292Z" fill="#740107"/>
<path d="M3.7959 51.8292L17.6842 0C28.4843 18.0895 22.2242 41.5327 3.7959 51.8292Z" fill="url(#paint5_linear_89001_1595)"/>
<path d="M3.7959 51.8292L5.57739 45.1807C19.1256 34.9012 24.5642 16.4088 17.6842 0C28.2724 17.7351 22.478 40.6956 4.74289 51.2838C4.42897 51.4708 4.11374 51.6526 3.7959 51.8292Z" fill="#1E003D"/>
<path d="M3.59473 52.5813L3.79615 51.8292C22.2245 41.5327 28.4845 18.0895 17.6844 0L19.1455 1.46103C23.5194 9.74455 24.6809 19.3256 22.3762 28.4593C19.8099 38.6316 13.2294 47.1989 4.06953 52.3171L3.59473 52.5813Z" fill="#F98AFE"/>
<path d="M17.6836 0L45.2038 27.5202L42.6584 30.0681C36.3827 35.4217 27.6256 36.9312 19.915 33.983C24.493 23.3464 24.0901 10.7308 17.6836 0Z" fill="#F98AFE"/>
<path d="M72.727 0L45.2068 27.5202L47.7521 30.0681C54.0279 35.4217 62.7862 36.9312 70.4968 33.983C65.9149 23.3346 66.3309 10.7138 72.727 0Z" fill="#FFFF00"/>
<defs>
<linearGradient id="paint0_linear_89001_1595" x1="99.0002" y1="73.9653" x2="22.2902" y2="33.5504" gradientUnits="userSpaceOnUse">
<stop stop-color="#5E17A9"/>
<stop offset="1" stop-color="#1E003D"/>
</linearGradient>
<linearGradient id="paint1_linear_89001_1595" x1="67.8082" y1="76.0754" x2="67.8068" y2="-52.3656" gradientUnits="userSpaceOnUse">
<stop stop-color="#FF2966"/>
<stop offset="1" stop-color="#FFFF00"/>
</linearGradient>
<linearGradient id="paint2_linear_89001_1595" x1="14.4622" y1="32.7934" x2="77.9848" y2="96.3147" gradientUnits="userSpaceOnUse">
<stop stop-color="#5E17A9"/>
<stop offset="1" stop-color="#1E003D"/>
</linearGradient>
<linearGradient id="paint3_linear_89001_1595" x1="22.6028" y1="64.7325" x2="22.6028" y2="-64.2328" gradientUnits="userSpaceOnUse">
<stop stop-color="#5E17A9"/>
<stop offset="1" stop-color="#FF2966"/>
</linearGradient>
<linearGradient id="paint4_linear_89001_1595" x1="85.5792" y1="1.10389" x2="67.0711" y2="70.1774" gradientUnits="userSpaceOnUse">
<stop stop-color="#FF2966"/>
<stop offset="1" stop-color="#C40015"/>
</linearGradient>
<linearGradient id="paint5_linear_89001_1595" x1="23.3996" y1="0.578172" x2="3.33633" y2="75.4622" gradientUnits="userSpaceOnUse">
<stop stop-color="#5E17A9"/>
<stop offset="1" stop-color="#1E003D"/>
</linearGradient>
</defs>
</svg>
